<svg xmlns="http://www.w3.org/2000/svg" width="15.823" height="17.933" viewBox="0 0 15.823 17.933">
  <g id="XMLID_2106_" transform="translate(-30)">
    <path id="XMLID_2107_" d="M210,90h6.329v2.11H210Z" transform="translate(-173.671 -86.835)" fill="#858585"/>
    <path id="XMLID_2186_" d="M112.212,0V16.878a2.1,2.1,0,0,1-.284,1.055h10.428a2.517,2.517,0,0,0,2.514-2.514V0Zm2.11,7.384h1.055V8.439h-1.055Zm0,2.11h1.055v1.055h-1.055Zm4.22,5.274h-4.22V13.714h4.22Zm0-2.11h-4.22V11.6h4.22Zm4.22,2.11H119.6V13.714h3.165Zm0-2.11H119.6V11.6h3.165Zm0-2.11h-6.329V9.494h6.329Zm0-2.11h-6.329V7.384h6.329Zm0-2.11h-8.439V2.11h8.439Z" transform="translate(-79.047)" fill="#858585"/>
    <path id="XMLID_2197_" d="M30,147.131a1.055,1.055,0,0,0,2.11,0V135H30Z" transform="translate(0 -130.253)" fill="#858585"/>
  </g>
</svg>
