<svg xmlns="http://www.w3.org/2000/svg" width="124.539" height="61.783" viewBox="0 0 124.539 61.783">
  <g id="Group_652" data-name="Group 652" transform="translate(-32.598 -44.016)">
    <g id="Group_1" data-name="Group 1" transform="translate(107.222 47.055)">
      <path id="Path_1" data-name="Path 1" d="M240.836,312.83,253.364,357l-11.5,3.2-11.024-39.617-1.285-4.617Z" transform="translate(-217.239 -301.46)" fill="#68a1ca" opacity="0.31"/>
      <path id="Path_2" data-name="Path 2" d="M282.706,338.6l9.678,33.932-11.5,3.2-8.472-30.445-.987-3.548Z" transform="translate(-242.47 -316.989)" fill="#fac85b" opacity="0.43"/>
      <path id="Path_3" data-name="Path 3" d="M198.567,342.965V290.353c0-3.386,1.351-6.131,3.018-6.131h8.693l.227,58.743Z" transform="translate(-198.567 -284.222)" fill="#b5322a" opacity="0.39"/>
      <path id="Path_4" data-name="Path 4" d="M198.567,284.222v28.911l5.969-5.969,5.854,5.969-.112-28.911Z" transform="translate(-198.567 -284.222)" fill="#b5322a"/>
      <path id="Path_5" data-name="Path 5" d="M229.555,315.951l7.419,26.661,4.335-7.4,7.163,4.448L240.884,312.8Z" transform="translate(-217.24 -301.44)" fill="#517a95"/>
      <path id="Path_6" data-name="Path 6" d="M268.741,333.131l5.634,20.246,4.15-7.351,7.238,4.342-5.547-20.534Z" transform="translate(-240.853 -311.707)" fill="#fac85b"/>
    </g>
    <text id="THE_LITTLE_BOOK_COMPANY" data-name="THE
LITTLE
BOOK
COMPANY" transform="translate(94.598 57.016)" fill="#1a1818" font-size="12" font-family="SegoeUI-Light, Segoe UI" font-weight="300" letter-spacing="0.1em"><tspan x="-22.656" y="0">THE</tspan><tspan x="-38.344" y="14">LITTLE</tspan><tspan x="-34.719" y="28">BOOK</tspan><tspan x="-61.2" y="42">COMPANY</tspan></text>
  </g>
</svg>
