<svg xmlns="http://www.w3.org/2000/svg" width="123.993" height="123.75" viewBox="0 0 123.993 123.75">
  <g id="storytelling" transform="translate(0 -0.502)">
    <path id="Path_40756" data-name="Path 40756" d="M87.01,355.381a3.632,3.632,0,0,1-3.249-2.008C73.523,332.9,37.709,339.74,37.349,339.812a3.633,3.633,0,0,1-1.422-7.125,85.531,85.531,0,0,1,21.854-1.025c13.185,1.146,23.159,5.731,29.23,13.362,6.071-7.631,16.045-12.216,29.23-13.362a85.51,85.51,0,0,1,21.854,1.025,3.633,3.633,0,0,1-1.424,7.124c-.358-.071-36.172-6.915-46.41,13.561a3.632,3.632,0,0,1-3.249,2.008Z" transform="translate(-25.013 -250.746)" fill="#e2dff4"/>
    <path id="Path_40757" data-name="Path 40757" d="M259.253,353.372c10.238-20.476,46.052-13.632,46.41-13.561a3.633,3.633,0,1,0,1.424-7.124,85.5,85.5,0,0,0-21.854-1.025c-13.185,1.146-23.159,5.731-29.23,13.362v10.357A3.633,3.633,0,0,0,259.253,353.372Z" transform="translate(-194.007 -250.746)" fill="#bebcdd"/>
    <path id="Path_40758" data-name="Path 40758" d="M126.9,390.949a3.636,3.636,0,0,0-1.824-2.33c-1.378-.729-32.981-17.182-54.009-4.97-21.028-12.21-52.631,4.24-54.009,4.97a3.636,3.636,0,0,0-1.824,2.33l-3.267,13.06,3.859,2.738,40.314-10.47s15.5,23.413,29.266,0l44.76,11.534.159-3.76Z" transform="translate(-9.066 -286.953)" fill="#f9f9f9"/>
    <path id="Path_40759" data-name="Path 40759" d="M315.1,404.011l-3.266-13.061a3.632,3.632,0,0,0-1.824-2.329c-1.378-.73-32.98-17.181-54.008-4.971V409.51c7.219,0,13.654-4.46,16.917-10.661l40.551,11.034,1.792-5.83Z" transform="translate(-194.007 -286.954)" fill="#e2dff4"/>
    <path id="Path_40760" data-name="Path 40760" d="M120.362,454.1a3.64,3.64,0,0,1-.9-.113l-40.55-10.307a19.15,19.15,0,0,1-33.835,0L4.529,453.989a3.633,3.633,0,1,1-1.79-7.041l43.578-11.077a3.631,3.631,0,0,1,4.36,2.429,11.872,11.872,0,0,0,22.639,0,3.632,3.632,0,0,1,4.36-2.429l43.578,11.077a3.633,3.633,0,0,1-.892,7.154Z" transform="translate(0 -329.85)" fill="#bc8173"/>
    <path id="Path_40761" data-name="Path 40761" d="M272.921,443.682l40.55,10.307a3.633,3.633,0,0,0,1.79-7.041l-43.578-11.077a3.632,3.632,0,0,0-4.36,2.429A11.817,11.817,0,0,1,256,446.594v7.265A19.047,19.047,0,0,0,272.921,443.682Z" transform="translate(-194.007 -329.851)" fill="#865240"/>
    <path id="Path_40762" data-name="Path 40762" d="M430.2,15.283H427.05V12.135a3.633,3.633,0,1,0-7.265,0v3.148h-3.148a3.633,3.633,0,1,0,0,7.265h3.148V25.7a3.633,3.633,0,1,0,7.265,0V22.548H430.2a3.633,3.633,0,1,0,0-7.265Z" transform="translate(-312.987 -6.063)" fill="#31bebe"/>
    <path id="Path_40763" data-name="Path 40763" d="M324.635,241.452a3.633,3.633,0,0,1-1.4-6.986l23.248-9.687a3.632,3.632,0,0,1,2.794,6.706l-23.248,9.687A3.621,3.621,0,0,1,324.635,241.452Z" transform="translate(-243.263 -169.751)" fill="#fabe2c"/>
    <path id="Path_40764" data-name="Path 40764" d="M276.637,128.451a3.636,3.636,0,0,1-3.537-4.475l9.687-40.685a3.632,3.632,0,1,1,7.067,1.683l-9.687,40.685A3.634,3.634,0,0,1,276.637,128.451Z" transform="translate(-206.888 -60.625)" fill="#fabe2c"/>
    <path id="Path_40765" data-name="Path 40765" d="M200.5,170.888a3.633,3.633,0,0,1-3.592-3.119l-3.875-27.123a3.633,3.633,0,0,1,7.192-1.027l3.875,27.123a3.633,3.633,0,0,1-3.083,4.11A3.689,3.689,0,0,1,200.5,170.888Z" transform="translate(-146.262 -103.062)" fill="#fed843"/>
    <path id="Path_40766" data-name="Path 40766" d="M75.885,199.016a3.621,3.621,0,0,1-2.568-1.064L50.068,174.7a3.633,3.633,0,1,1,5.137-5.137l23.248,23.248a3.633,3.633,0,0,1-2.569,6.2Z" transform="translate(-37.137 -127.316)" fill="#fed843"/>
    <circle id="Ellipse_92" data-name="Ellipse 92" cx="3.5" cy="3.5" r="3.5" transform="translate(1.993 62.875)" fill="#5ed8d3"/>
    <ellipse id="Ellipse_93" data-name="Ellipse 93" cx="4" cy="3.5" rx="4" ry="3.5" transform="translate(57.993 12.875)" fill="#fed843"/>
    <circle id="Ellipse_94" data-name="Ellipse 94" cx="3.5" cy="3.5" r="3.5" transform="translate(90.993 32.875)" fill="#ad77e3"/>
    <path id="Path_40767" data-name="Path 40767" d="M259.637,52.134A3.632,3.632,0,0,0,256,48.5v7.265A3.633,3.633,0,0,0,259.637,52.134Z" transform="translate(-194.007 -36.375)" fill="#fabe2c"/>
    <path id="Path_40768" data-name="Path 40768" d="M12.386,23.266A11.382,11.382,0,1,1,23.768,11.884,11.395,11.395,0,0,1,12.386,23.266Z" transform="translate(-0.761)" fill="#f66"/>
  </g>
</svg>
