<svg xmlns="http://www.w3.org/2000/svg" width="16" height="16" viewBox="0 0 16 16">
  <g id="download_1_" data-name="download (1)" transform="translate(0)">
    <path id="Path_40769" data-name="Path 40769" d="M3.689,11.539V0H2.92A2.056,2.056,0,0,0,.867,2.053V12.191a2.671,2.671,0,0,1,1.75-.652H3.689Z" transform="translate(-0.84)" fill="#a7acb2"/>
    <path id="Path_40770" data-name="Path 40770" d="M125.377,11.539a4.477,4.477,0,0,1,4.379-3.571c.1,0,.2,0,.3.01V0H121.1V11.539Zm-1.433-8.783h3.132v.936h-3.132Zm-1.058,2.032h5.248v.936h-5.248Z" transform="translate(-117.32)" fill="#a7acb2"/>
    <path id="Path_40771" data-name="Path 40771" d="M8.578,400.482H2.4v-.936H8.166a4.454,4.454,0,0,1-.2-1.31H1.778a1.778,1.778,0,1,0,0,3.555H9.742a4.5,4.5,0,0,1-1.164-1.31Z" transform="translate(0 -385.792)" fill="#a7acb2"/>
    <path id="Path_40772" data-name="Path 40772" d="M287.512,283.95a3.563,3.563,0,1,0,3.563,3.563A3.567,3.567,0,0,0,287.512,283.95Zm0,5.47-1.708-1.708.662-.662.578.578v-2.023h.936v2.023l.578-.578.662.662Z" transform="translate(-275.076 -275.077)" fill="#a7acb2"/>
  </g>
</svg>
