<svg id="logout_1_" data-name="logout (1)" xmlns="http://www.w3.org/2000/svg" width="15.195" height="15.195" viewBox="0 0 15.195 15.195">
  <path id="Path_40752" data-name="Path 40752" d="M.633,8.235a.633.633,0,0,1,.633.633V11.4a.634.634,0,0,0,.633.633H3.8v-9.5a1.276,1.276,0,0,1,.862-1.2l.187-.063H1.9a.634.634,0,0,0-.633.633V3.8A.633.633,0,0,1,0,3.8V1.9A1.9,1.9,0,0,1,1.9,0H8.706a.5.5,0,0,1,.068.014C8.8.015,8.833,0,8.864,0A1.267,1.267,0,0,1,10.13,1.27v11.4a1.276,1.276,0,0,1-.862,1.2l-3.81,1.27a1.311,1.311,0,0,1-.393.059A1.267,1.267,0,0,1,3.8,13.933V13.3H1.9A1.9,1.9,0,0,1,0,11.4V8.868a.633.633,0,0,1,.633-.633Zm0,0" transform="translate(5.065 -0.004)" fill="#d04a4a"/>
  <path id="Path_40753" data-name="Path 40753" d="M277.518,109.384l2.533-2.532a.633.633,0,0,1,1.081.448v1.9h2.532a.633.633,0,1,1,0,1.266h-2.532v1.9a.633.633,0,0,1-1.081.448l-2.533-2.533a.632.632,0,0,1,0-.9Zm0,0" transform="translate(-277.332 -103.5)" fill="#d04a4a"/>
</svg>
