<svg xmlns="http://www.w3.org/2000/svg" width="16.419" height="12.544" viewBox="0 0 16.419 12.544">
  <g id="Group_155" data-name="Group 155" transform="translate(0 0)">
    <g id="Group_154" data-name="Group 154" transform="translate(0 0)">
      <path id="Path_64" data-name="Path 64" d="M35.419,35.049h0a.579.579,0,0,0-.412.171.585.585,0,0,0-.173.417v8.81a.59.59,0,0,0,.588.587,7.268,7.268,0,0,1,5.239,1.942v-9.22a.563.563,0,0,0-.081-.3C39.283,35.37,36.79,35.052,35.419,35.049Z" transform="translate(-32.907 -35.049)" fill="#4b3301"/>
      <path id="Path_65" data-name="Path 65" d="M162.579,44.446v-8.81a.586.586,0,0,0-.584-.588h0c-1.371,0-3.864.321-5.161,2.41a.563.563,0,0,0-.081.3v9.22a7.268,7.268,0,0,1,5.239-1.942A.59.59,0,0,0,162.579,44.446Z" transform="translate(-148.086 -35.048)" fill="#4b3301"/>
      <path id="Path_66" data-name="Path 66" d="M177.833,71.8h-.426v7.366a1.5,1.5,0,0,1-1.5,1.5,6.517,6.517,0,0,0-4.427,1.512,14.144,14.144,0,0,1,6.22.12.587.587,0,0,0,.719-.572V72.388A.588.588,0,0,0,177.833,71.8Z" transform="translate(-162.002 -69.769)" fill="#4b3301"/>
      <path id="Path_67" data-name="Path 67" d="M1.013,79.167V71.8H.587A.588.588,0,0,0,0,72.388v9.337a.587.587,0,0,0,.719.572,14.143,14.143,0,0,1,6.22-.12,6.516,6.516,0,0,0-4.427-1.512A1.5,1.5,0,0,1,1.013,79.167Z" transform="translate(0 -69.769)" fill="#4b3301"/>
    </g>
  </g>
</svg>
