<svg xmlns="http://www.w3.org/2000/svg" width="18.207" height="12.764" viewBox="0 0 18.207 12.764">
  <path id="Path_265" data-name="Path 265" d="M47.015,43.427A9.086,9.086,0,0,0,35,52.076a13.92,13.92,0,0,0,.364,3.278.391.391,0,0,0,.364.364H52.387a.6.6,0,0,0,.456-.364,21.3,21.3,0,0,0,.364-3.278A9.019,9.019,0,0,0,47.015,43.427Zm-2.908,1.365a.86.86,0,0,1,.911.91.911.911,0,1,1-1.821,0,.86.86,0,0,1,.9-.91Zm-6.37,8.194a.911.911,0,1,1,.819-.445A.911.911,0,0,1,37.736,52.987Zm2.541-4.735a.879.879,0,0,1-1.274,0,1.108,1.108,0,0,1-.091-1.365.879.879,0,0,1,1.274,0A1.108,1.108,0,0,1,40.278,48.252ZM44.1,53.9c-1,0-1.911-.91-1.638-1.821S44.1,48.439,44.1,48.439s1.367,2.731,1.64,3.641S45.109,53.9,44.1,53.9Zm5.19-5.649a.9.9,0,1,1,0-1.274A1.092,1.092,0,0,1,49.292,48.252Zm1.184,4.735a.911.911,0,1,1,.91-.911.86.86,0,0,1-.91.911Z" transform="translate(-35 -42.954)" fill="#4b3301"/>
</svg>
