<svg xmlns="http://www.w3.org/2000/svg" width="14" height="13.417" viewBox="0 0 14 13.417">
  <g id="paper-plane" transform="translate(0 0)" opacity="0.6">
    <path id="Path_296" data-name="Path 296" d="M8.75,17.612v2.705a.437.437,0,0,0,.79.259l1.583-2.154Z" transform="translate(-3.646 -7.338)" fill="#6d767f"/>
    <path id="Path_297" data-name="Path 297" d="M13.816.081A.438.438,0,0,0,13.36.05L.235,6.9a.438.438,0,0,0,.061.8L3.944,8.953l7.771-6.644L5.7,9.553l6.115,2.09a.448.448,0,0,0,.141.023.437.437,0,0,0,.433-.373L14,.5a.438.438,0,0,0-.179-.421Z" transform="translate(0 0)" fill="#6d767f"/>
  </g>
</svg>
