<svg xmlns="http://www.w3.org/2000/svg" width="15.937" height="15.852" viewBox="0 0 15.937 15.852">
  <g id="edit_1_" data-name="edit (1)" opacity="0.73">
    <path id="Path_298" data-name="Path 298" d="M15.48,28.015a.418.418,0,0,0-.418.418v3.709a1.255,1.255,0,0,1-1.253,1.253H2.089A1.255,1.255,0,0,1,.835,32.142V21.257A1.254,1.254,0,0,1,2.089,20H5.8a.418.418,0,0,0,0-.835H2.089A2.091,2.091,0,0,0,0,21.257V32.142A2.091,2.091,0,0,0,2.089,34.23h11.72A2.091,2.091,0,0,0,15.9,32.142V28.433A.418.418,0,0,0,15.48,28.015Zm0,0" transform="translate(0 -18.379)" fill="#2d2926"/>
    <path id="Path_299" data-name="Path 299" d="M156.367,38.427l6.1-6.1,1.967,1.967-6.1,6.1Zm0,0" transform="translate(-149.835 -30.989)" fill="#2d2926"/>
    <path id="Path_300" data-name="Path 300" d="M132.543,199.393l2.174-.6-1.572-1.572Zm0,0" transform="translate(-127.007 -188.992)" fill="#2d2926"/>
    <path id="Path_301" data-name="Path 301" d="M318.447.574a1.046,1.046,0,0,0-1.477,0l-.443.443,1.967,1.967.443-.443a1.045,1.045,0,0,0,0-1.477Zm0,0" transform="translate(-303.305 -0.269)" fill="#2d2926"/>
  </g>
</svg>
