<svg xmlns="http://www.w3.org/2000/svg" width="14.667" height="10" viewBox="0 0 14.667 10">
  <g id="visibility" transform="translate(0 -74.667)">
    <g id="Group_616" data-name="Group 616" transform="translate(0 74.667)">
      <g id="Group_615" data-name="Group 615" transform="translate(0 0)">
        <path id="Path_332" data-name="Path 332" d="M172.667,170.667a2,2,0,1,0,2,2A2,2,0,0,0,172.667,170.667Z" transform="translate(-165.334 -167.667)" fill="#b5322a"/>
        <path id="Path_333" data-name="Path 333" d="M7.333,74.667a7.885,7.885,0,0,0-7.333,5,7.878,7.878,0,0,0,14.667,0A7.881,7.881,0,0,0,7.333,74.667Zm0,8.333a3.333,3.333,0,1,1,3.333-3.333A3.335,3.335,0,0,1,7.333,83Z" transform="translate(0 -74.667)" fill="#b5322a"/>
      </g>
    </g>
  </g>
</svg>
