<svg xmlns="http://www.w3.org/2000/svg" width="12.551" height="11.504" viewBox="0 0 12.551 11.504">
  <path id="buy_1_" data-name="buy (1)" d="M12.035,23.432H2.222l-.146-1.625a.515.515,0,0,0-.513-.469H.515a.515.515,0,1,0,0,1.031h.576l.593,6.6a1.983,1.983,0,0,0,.742,1.344,1.562,1.562,0,1,0,2.7.43H7.948a1.563,1.563,0,1,0,1.469-1.031H3.661a.957.957,0,0,1-.88-.58l8.238-.484a.515.515,0,0,0,.47-.39l1.047-4.189a.516.516,0,0,0-.5-.64ZM3.657,31.811a.532.532,0,1,1,.532-.532A.532.532,0,0,1,3.657,31.811Zm5.76,0a.532.532,0,1,1,.532-.532A.532.532,0,0,1,9.417,31.811Zm1.163-4.166-7.938.466-.327-3.648h9.061Z" transform="translate(0 -21.338)" fill="#acacac"/>
</svg>
