<svg xmlns="http://www.w3.org/2000/svg" width="13.76" height="13.76" viewBox="0 0 13.76 13.76">
  <g id="cost" transform="translate(0)">
    <path id="Path_254" data-name="Path 254" d="M152.049,246.15a.4.4,0,0,1-.4-.4.4.4,0,1,0-.806,0,1.211,1.211,0,0,0,.811,1.141v.353a.4.4,0,1,0,.806,0v-.356a1.209,1.209,0,0,0-.407-2.348.4.4,0,1,1,.4-.4.4.4,0,1,0,.806,0,1.211,1.211,0,0,0-.8-1.139V242.4a.4.4,0,0,0-.806,0v.589a1.209,1.209,0,0,0,.4,2.351.4.4,0,0,1,0,.806Zm0,0" transform="translate(-146.786 -235.497)" fill="#b5322a"/>
    <path id="Path_255" data-name="Path 255" d="M1.643,13.1a7.7,7.7,0,0,0,3.624.658,8.9,8.9,0,0,0,3.107-.431,1.207,1.207,0,0,0,.924.431H12.55a1.209,1.209,0,0,0,.9-2.016,1.206,1.206,0,0,0,0-1.612,1.206,1.206,0,0,0,0-1.612,1.209,1.209,0,0,0-.9-2.016H9.3c-.039,0-.078,0-.116.006a5.52,5.52,0,0,0-1.4-1.216A1.208,1.208,0,0,0,7.4,3.4l.672-2.061A.4.4,0,0,0,7.686.806H6.407a1.209,1.209,0,0,0-2.28,0H2.848a.4.4,0,0,0-.383.528L3.137,3.4a1.208,1.208,0,0,0-.383,1.9A5.75,5.75,0,0,0,0,10.132,3.108,3.108,0,0,0,1.643,13.1ZM12.953,9.326a.4.4,0,0,1-.4.4H9.3a.4.4,0,0,1,0-.806H12.55A.4.4,0,0,1,12.953,9.326Zm0,1.612a.4.4,0,0,1-.4.4H9.3a.4.4,0,0,1,0-.806H12.55A.4.4,0,0,1,12.953,10.938Zm-.4,2.016H9.3a.4.4,0,1,1,0-.806H12.55a.4.4,0,1,1,0,.806Zm.4-5.241a.4.4,0,0,1-.4.4H9.3a.4.4,0,0,1,0-.806H12.55A.4.4,0,0,1,12.953,7.713ZM6.868,4.891H3.655a.4.4,0,0,1,0-.806H6.881a.4.4,0,0,1,0,.806H6.868ZM4.461,1.613a.4.4,0,0,0,.4-.4.4.4,0,1,1,.806,0v.806a.4.4,0,1,0,.806,0v-.4H7.13L6.587,3.279H3.947L3.4,1.613ZM3.733,5.7H6.8A4.556,4.556,0,0,1,8.43,6.872,1.206,1.206,0,0,0,8.4,8.519a1.206,1.206,0,0,0,0,1.612,1.206,1.206,0,0,0,0,1.612,1.2,1.2,0,0,0-.309.806c0,.008,0,.016,0,.025a8.147,8.147,0,0,1-2.822.378,6.984,6.984,0,0,1-3.244-.563A2.3,2.3,0,0,1,.806,10.132,4.891,4.891,0,0,1,3.733,5.7Zm0,0" transform="translate(0 0)" fill="#b5322a"/>
  </g>
</svg>
