<svg xmlns="http://www.w3.org/2000/svg" width="12.28" height="9.382" viewBox="0 0 12.28 9.382">
  <g id="open-book" transform="translate(0 0)">
    <g id="Group_155" data-name="Group 155" transform="translate(0 0)">
      <g id="Group_154" data-name="Group 154" transform="translate(0 0)">
        <path id="Path_64" data-name="Path 64" d="M35.271,35.049h0a.433.433,0,0,0-.308.128.438.438,0,0,0-.129.312v6.589a.441.441,0,0,0,.44.439,5.436,5.436,0,0,1,3.919,1.453v-6.9a.421.421,0,0,0-.06-.223A4.437,4.437,0,0,0,35.271,35.049Z" transform="translate(-33.393 -35.049)" fill="#517a95"/>
        <path id="Path_65" data-name="Path 65" d="M161.11,42.077v-6.59a.438.438,0,0,0-.129-.312.433.433,0,0,0-.308-.128h0a4.437,4.437,0,0,0-3.86,1.8.421.421,0,0,0-.06.223v6.9a5.436,5.436,0,0,1,3.919-1.453A.441.441,0,0,0,161.11,42.077Z" transform="translate(-150.27 -35.048)" fill="#517a95"/>
        <path id="Path_66" data-name="Path 66" d="M176.233,71.8h-.319V77.31a1.124,1.124,0,0,1-1.121,1.122,4.874,4.874,0,0,0-3.311,1.131,10.579,10.579,0,0,1,4.652.09.439.439,0,0,0,.538-.428V72.24A.44.44,0,0,0,176.233,71.8Z" transform="translate(-164.392 -70.281)" fill="#517a95"/>
        <path id="Path_67" data-name="Path 67" d="M.758,77.31V71.8H.439A.44.44,0,0,0,0,72.24v6.984a.439.439,0,0,0,.538.428,10.578,10.578,0,0,1,4.652-.09,4.874,4.874,0,0,0-3.311-1.131A1.124,1.124,0,0,1,.758,77.31Z" transform="translate(0 -70.281)" fill="#517a95"/>
      </g>
    </g>
  </g>
</svg>
