<svg xmlns="http://www.w3.org/2000/svg" width="183.178" height="90.411" viewBox="0 0 183.178 90.411">
  <g id="Group_740" data-name="Group 740" transform="translate(-33.598 -44.016)">
    <g id="Group_1" data-name="Group 1" transform="translate(142.958 47.553)">
      <path id="Path_1" data-name="Path 1" d="M246.239,312.83l18.527,65.327-17.009,4.733-16.3-58.589-1.9-6.828Z" transform="translate(-211.342 -296.016)" fill="#68a1ca" opacity="0.31"/>
      <path id="Path_2" data-name="Path 2" d="M288.109,338.6l14.312,50.181-17.009,4.733L272.884,348.49l-1.46-5.247Z" transform="translate(-228.604 -306.641)" fill="#fac85b" opacity="0.43"/>
      <path id="Path_3" data-name="Path 3" d="M198.567,371.1V293.289c0-5.008,2-9.067,4.463-9.067h12.856l.336,86.873Z" transform="translate(-198.567 -284.222)" fill="#b5322a" opacity="0.39"/>
      <path id="Path_4" data-name="Path 4" d="M198.567,284.222v42.756l8.827-8.828,8.657,8.828-.165-42.756Z" transform="translate(-198.567 -284.222)" fill="#b5322a"/>
      <path id="Path_5" data-name="Path 5" d="M229.555,317.461l10.972,39.428,6.41-10.947,10.593,6.579L246.31,312.8Z" transform="translate(-211.343 -296.002)" fill="#517a95"/>
      <path id="Path_6" data-name="Path 6" d="M268.741,334.709l8.332,29.942,6.138-10.871,10.7,6.421-8.2-30.367Z" transform="translate(-227.498 -303.027)" fill="#fac85b"/>
    </g>
    <text id="THE_LITTLE_BOOK_COMPANY" data-name="THE
LITTLE
BOOK
COMPANY" transform="translate(120.598 62.016)" fill="#1a1818" font-size="17" font-family="SegoeUI-Light, Segoe UI" font-weight="300" letter-spacing="0.1em"><tspan x="-32.096" y="0">THE</tspan><tspan x="-54.32" y="20">LITTLE</tspan><tspan x="-49.185" y="40">BOOK</tspan><tspan x="-86.7" y="60">COMPANY</tspan></text>
  </g>
</svg>
