<svg xmlns="http://www.w3.org/2000/svg" width="31.244" height="32.084" viewBox="0 0 31.244 32.084">
  <path id="gear" d="M37.405,19.558l-2.949-2.306a10.731,10.731,0,0,0,0-2.422l2.952-2.307a1.446,1.446,0,0,0,.349-1.844l-3.068-5.3a1.45,1.45,0,0,0-1.774-.639l-3.476,1.4a11.907,11.907,0,0,0-2.088-1.212L26.817,1.23A1.421,1.421,0,0,0,25.4,0H19.248a1.417,1.417,0,0,0-1.412,1.219l-.535,3.7a12.348,12.348,0,0,0-2.085,1.214l-3.485-1.4a1.421,1.421,0,0,0-1.761.627L6.9,10.675a1.436,1.436,0,0,0,.349,1.852L10.2,14.833a10.63,10.63,0,0,0,0,2.422L7.246,19.561A1.445,1.445,0,0,0,6.9,21.4l3.067,5.3a1.449,1.449,0,0,0,1.774.639l3.476-1.4A11.962,11.962,0,0,0,17.3,27.164l.535,3.69a1.418,1.418,0,0,0,1.412,1.231H25.4a1.418,1.418,0,0,0,1.416-1.219l.535-3.7a12.372,12.372,0,0,0,2.085-1.214l3.489,1.4a1.422,1.422,0,0,0,1.761-.627l3.08-5.334A1.442,1.442,0,0,0,37.405,19.558ZM22.323,22.727a6.684,6.684,0,1,1,6.684-6.684A6.684,6.684,0,0,1,22.323,22.727Z" transform="translate(-6.703 0)" fill="#b5322a"/>
</svg>
