<svg id="notification_1_" data-name="notification (1)" xmlns="http://www.w3.org/2000/svg" width="29.004" height="31.639" viewBox="0 0 29.004 31.639">
  <path id="Path_68" data-name="Path 68" d="M139.808,451.955A4.951,4.951,0,0,0,144.652,448h-9.687A4.952,4.952,0,0,0,139.808,451.955Zm0,0" transform="translate(-126.625 -420.316)" fill="#fac85b"/>
  <path id="Path_69" data-name="Path 69" d="M22.427,55.849h-.016a9.239,9.239,0,0,1-9.228-9.228,9.146,9.146,0,0,1,.882-3.91c-.29-.028-.584-.045-.882-.045A9.228,9.228,0,0,0,3.955,51.9v3.675A8.839,8.839,0,0,1,.806,62.338a2.307,2.307,0,0,0-.725,2.368A2.418,2.418,0,0,0,2.452,66.4H23.907a2.417,2.417,0,0,0,2.41-1.829,2.311,2.311,0,0,0-.787-2.257,8.772,8.772,0,0,1-3.1-6.462Zm0,0" transform="translate(0.001 -40.031)" fill="#fac85b"/>
  <path id="Path_70" data-name="Path 70" d="M269.2,6.592A6.592,6.592,0,1,1,262.6,0,6.591,6.591,0,0,1,269.2,6.592Zm0,0" transform="translate(-240.191)" fill="#b5322a"/>
</svg>
